# xmcd CD database file
#
# Track frame offsets:
#	150
#	17645
#	30342
#	53246
#	71860
#	87227
#	107149
#	123421
#	142977
#	156203
#	171376
#	184457
#	196652
#	215852
#	230741
#	240642
#	258913
#	271412
#	285222
#	311453
#
# Disc length: 4325 seconds
#
# Revision: 0
# Processed by: cddbd v1.5.1PL2 Copyright (c) Steve Scherf et al.
# Submitted via: CDex 1.50
#
DISCID=2110e314
DTITLE=Various Artist - Custom Music CD
DYEAR=1900
DGENRE=Country
TTITLE0=Red Solvine- Convoy- Truck Driving Song
TTITLE1=Jerry Reed - Eastbound and Down (Smokey and the Bandit)
TTITLE2=Truckers Songs - Red Sovine - Teddy Bear
TTITLE3=Trucker Songs - Alabama - Roll On Eighteen Wheeler
TTITLE4=Red Sovine - Phantom 309 (1)
TTITLE5=Dwight Yoakam - A Thousand Miles From Nowhere
TTITLE6=Red Solvine - rosses for mamma
TTITLE7=Mac Davis - Oh Lord It's Hard To Be Humble
TTITLE8=Trucker Songs-C. W. McCall - Old Home Filler-up An' Keep On A-Truckin' Cafe
TTITLE9=Kathy Mattea - 18 Wheels And A Dozen Roses
TTITLE10=George Strait - Amarillo By Morning
TTITLE11=John Conley - Common Man
TTITLE12=George Strait - I Can Still Make Cheyenne
TTITLE13=Waylon Jennings and Willie Nelson - Lukenbach Texas(1)
TTITLE14=Merle Haggard - Dukes of Hazard Theme Song
TTITLE15=Red Sovine - Giddy Up Go
TTITLE16=Tim Wilson - I Married A Woman Who Talks Like Jerry Reed
TTITLE17=Garth Brooks and George Jones - Beer Run
TTITLE18=Harry Chapin - 30,000 Pounds Of Bananas
TTITLE19=Dwight Yoakam - In Others' Words - 07 - Rapid City, South Dakota
EXTD=
EXTT0=
EXTT1=
EXTT2=
EXTT3=
EXTT4=
EXTT5=
EXTT6=
EXTT7=
EXTT8=
EXTT9=
EXTT10=
EXTT11=
EXTT12=
EXTT13=
EXTT14=
EXTT15=
EXTT16=
EXTT17=
EXTT18=
EXTT19=
PLAYORDER=
